<?xml version="1.0" standalone="no"?>
<!DOCTYPE svg PUBLIC "-//W3C//DTD SVG 20010904//EN"
 "http://www.w3.org/TR/2001/REC-SVG-20010904/DTD/svg10.dtd">
<svg version="1.0" xmlns="http://www.w3.org/2000/svg"
 width="274.000000pt" height="274.000000pt" viewBox="0 0 274.000000 274.000000"
 preserveAspectRatio="xMidYMid meet">
<metadata>
Created by potrace 1.14, written by Peter Selinger 2001-2017
</metadata>
<g transform="translate(0.000000,274.000000) scale(0.100000,-0.100000)"
fill="#000000" stroke="none">
<path d="M1300 2523 c0 -7 -11 -15 -25 -19 -14 -3 -25 -10 -25 -15 0 -5 -5 -9
-11 -9 -5 0 -7 6 -3 13 5 8 3 8 -9 -2 -9 -7 -14 -18 -10 -24 3 -5 2 -7 -4 -4
-5 3 -21 0 -36 -8 -14 -7 -28 -11 -31 -7 -3 3 -6 0 -6 -7 0 -7 -4 -10 -9 -6
-5 3 -16 -1 -24 -9 -8 -8 -17 -12 -21 -9 -3 4 -6 2 -6 -3 0 -5 -9 -10 -20 -11
-11 -1 -27 -9 -36 -17 -9 -9 -20 -14 -25 -10 -5 3 -12 -2 -15 -11 -6 -13 -8
-14 -15 -3 -7 10 -9 9 -9 -5 0 -10 -5 -15 -10 -12 -6 4 -17 1 -25 -5 -8 -7
-15 -9 -15 -4 0 5 -5 1 -11 -8 -5 -10 -18 -18 -29 -18 -10 0 -25 -6 -32 -13
-7 -8 -19 -12 -26 -9 -6 2 -12 -1 -12 -8 0 -6 -4 -8 -10 -5 -5 3 -10 2 -10 -3
0 -5 -7 -9 -15 -10 -8 -1 -21 -3 -29 -4 -8 -1 -12 -8 -8 -16 4 -11 1 -14 -11
-9 -9 3 -23 -1 -32 -9 -11 -12 -15 -12 -15 -2 -1 9 -5 7 -14 -4 -7 -10 -16
-15 -19 -11 -4 3 -10 -2 -13 -11 -5 -14 -9 -15 -15 -4 -7 10 -9 10 -9 1 0 -7
-9 -13 -21 -13 -11 0 -17 -4 -14 -10 4 -6 -5 -10 -19 -10 -14 0 -26 -5 -26
-11 0 -6 -6 -9 -13 -6 -8 3 -20 -3 -28 -14 -14 -20 -35 -27 -23 -8 3 6 -12 -1
-35 -15 -22 -14 -45 -26 -51 -26 -5 0 -10 -4 -10 -9 0 -6 -9 -8 -20 -6 -11 2
-24 -3 -30 -13 -5 -9 -10 -13 -10 -9 0 5 -8 1 -18 -9 -9 -10 -15 -20 -14 -22
2 -3 -2 -9 -10 -13 -7 -5 -8 -9 -3 -9 6 0 11 -9 12 -20 1 -11 -1 -19 -5 -16
-4 2 -7 -7 -7 -20 0 -13 3 -24 7 -24 11 0 5 -23 -7 -32 -6 -5 -6 -8 2 -8 9 0
11 -19 3 -40 -1 -3 -1 -9 0 -15 6 -33 6 -84 -1 -79 -5 3 -5 -5 0 -18 4 -13 5
-35 0 -50 -5 -18 -4 -28 3 -28 7 0 6 -5 -1 -14 -9 -11 -9 -15 0 -18 9 -3 9 -9
0 -26 -6 -12 -8 -22 -4 -22 4 0 8 -13 8 -30 0 -16 -3 -30 -7 -30 -4 0 -4 -11
1 -23 5 -13 6 -30 1 -37 -5 -7 -4 -24 1 -37 6 -16 5 -23 -4 -23 -8 0 -8 -3 2
-9 10 -7 11 -13 2 -30 -7 -11 -8 -21 -4 -21 4 0 8 -13 8 -30 0 -16 -3 -30 -7
-30 -4 0 -4 -11 1 -23 5 -13 5 -30 1 -37 -5 -8 -7 -17 -5 -20 10 -16 13 -60 4
-65 -5 -4 -5 -14 1 -25 6 -12 7 -21 0 -25 -5 -3 -6 -15 -1 -27 4 -12 5 -37 1
-55 -5 -18 -4 -33 1 -33 11 0 7 -23 -6 -32 -6 -5 -6 -8 2 -8 12 0 12 -18 -1
-39 -5 -7 -5 -16 0 -20 5 -3 9 -20 10 -38 1 -31 26 -68 38 -56 3 4 6 1 6 -6 0
-8 7 -11 15 -7 8 3 15 1 15 -4 0 -6 7 -10 15 -10 8 0 15 -4 15 -8 0 -4 10 -9
22 -9 13 -1 24 -7 26 -13 2 -5 15 -10 28 -10 14 0 22 -4 19 -10 -3 -5 2 -10
12 -10 10 0 27 -7 37 -15 10 -8 23 -12 27 -9 5 3 9 0 9 -6 0 -6 5 -8 10 -5 6
3 10 1 10 -5 0 -6 5 -8 10 -5 6 3 10 1 10 -5 0 -6 4 -8 10 -5 6 3 10 1 10 -5
0 -7 7 -10 15 -6 8 3 15 1 15 -4 0 -6 7 -10 16 -10 8 0 22 -7 31 -16 9 -8 21
-13 28 -11 6 3 17 -4 23 -14 7 -11 23 -19 38 -19 14 0 32 -7 41 -15 8 -8 19
-13 24 -10 5 4 9 1 9 -4 0 -6 7 -11 15 -11 8 0 15 -4 15 -10 0 -5 7 -7 15 -4
8 4 15 1 15 -5 0 -6 3 -11 8 -10 16 2 52 -14 52 -24 0 -6 3 -8 6 -4 3 3 31 -8
61 -23 31 -16 60 -27 65 -24 4 3 8 0 8 -6 0 -6 5 -8 10 -5 5 3 10 -1 10 -11 0
-11 6 -15 20 -11 11 3 20 1 20 -5 0 -5 5 -6 10 -3 5 3 10 1 10 -4 0 -6 9 -11
20 -11 11 0 20 -4 20 -10 0 -5 9 -10 20 -10 11 0 20 -5 20 -11 0 -5 5 -7 10
-4 6 3 10 2 10 -4 0 -6 7 -7 17 -4 10 4 14 2 10 -4 -4 -7 3 -10 18 -9 14 0 25
6 25 11 0 6 4 4 9 -3 6 -11 10 -10 15 3 4 10 12 15 21 11 9 -3 18 1 21 9 4 8
10 12 15 9 5 -3 9 0 9 7 0 7 3 9 6 6 4 -3 16 -1 28 5 11 7 24 11 29 10 4 -1 7
2 7 8 0 5 9 10 20 10 11 0 20 5 20 12 0 6 3 8 7 5 3 -4 12 -2 20 4 7 6 13 8
13 5 0 -4 7 0 16 8 8 9 20 14 25 11 5 -4 9 -2 9 3 0 5 18 15 40 22 22 7 40 17
40 22 0 4 3 7 8 6 4 -1 17 3 30 10 12 7 26 11 30 8 5 -3 16 4 26 15 10 12 24
18 32 15 9 -3 12 -1 9 4 -3 6 3 10 14 10 12 0 21 5 21 12 0 6 3 9 6 6 3 -4 41
11 85 33 43 21 83 39 89 39 5 0 10 5 10 11 0 6 7 9 15 5 8 -3 19 2 24 12 6 9
11 14 11 9 0 -4 18 2 40 13 22 11 40 18 40 14 0 -3 7 2 16 10 8 9 20 14 25 11
5 -4 9 -1 9 5 0 7 7 10 15 6 9 -3 15 0 15 10 0 8 5 12 10 9 6 -3 10 -1 10 4 0
6 5 11 11 11 5 0 7 -6 3 -12 -4 -7 2 -5 13 4 11 10 24 18 30 18 5 0 20 12 34
27 13 14 18 23 12 19 -16 -9 -17 6 -1 22 7 7 8 12 2 12 -11 0 -11 40 0 58 4 7
2 12 -4 12 -6 0 -8 5 -3 13 11 18 12 37 2 37 -6 0 -5 8 1 20 6 11 7 20 3 20
-10 0 -10 41 1 58 4 7 2 12 -4 12 -6 0 -8 5 -3 13 11 18 12 37 2 37 -6 0 -5 8
1 20 6 11 7 20 3 20 -10 0 -10 41 1 58 4 7 2 12 -4 12 -6 0 -8 5 -3 13 11 18
12 37 2 37 -6 0 -5 8 1 20 6 11 7 20 3 20 -10 0 -10 41 1 58 4 7 2 12 -4 12
-6 0 -8 5 -3 13 11 18 12 37 2 37 -6 0 -5 8 1 20 6 11 7 20 3 20 -10 0 -10 41
1 58 4 7 2 12 -4 12 -6 0 -8 5 -3 13 11 18 12 37 2 37 -6 0 -5 8 1 20 6 11 7
20 3 20 -10 0 -10 41 1 58 4 7 2 12 -4 12 -6 0 -8 5 -3 13 11 18 12 37 2 37
-6 0 -5 8 1 20 6 11 7 20 3 20 -10 0 -10 41 1 58 4 7 2 12 -5 12 -8 0 -8 4 -1
13 15 18 15 29 1 38 -10 6 -10 11 0 22 8 10 8 17 2 21 -6 4 -7 16 -2 28 6 15
2 28 -12 44 -11 13 -24 21 -29 18 -4 -3 -8 2 -8 11 0 9 -5 13 -10 10 -6 -4
-22 0 -35 9 -13 9 -31 16 -40 16 -8 0 -15 5 -15 10 0 6 -9 10 -20 10 -11 0
-20 4 -20 10 0 5 -3 9 -7 8 -14 -3 -53 13 -53 22 0 5 -9 7 -20 5 -11 -2 -18 0
-15 6 4 5 -3 9 -14 9 -12 0 -21 4 -21 9 0 9 -48 26 -62 23 -5 -1 -8 3 -8 9 0
5 -4 7 -10 4 -5 -3 -10 -1 -10 4 0 6 -9 11 -20 11 -11 0 -20 5 -20 10 0 6 -9
10 -20 10 -11 0 -20 5 -20 11 0 5 -4 7 -10 4 -5 -3 -10 -1 -10 5 0 7 -7 10
-15 6 -8 -3 -19 2 -24 12 -5 9 -11 16 -13 14 -2 -1 -16 2 -33 8 -16 6 -33 9
-37 8 -4 -2 -14 6 -23 17 -9 11 -13 13 -9 5 5 -10 0 -9 -14 4 -12 11 -22 15
-22 10 0 -5 -4 -4 -8 3 -4 6 -14 13 -22 15 -8 2 -21 10 -28 18 -8 8 -11 10 -8
4 6 -13 -95 35 -105 49 -3 5 -9 8 -13 8 -23 -3 -36 0 -31 9 4 6 -5 10 -19 10
-14 0 -26 5 -26 10 0 6 -11 10 -25 10 -14 0 -25 3 -25 8 0 4 -9 13 -21 20 -17
11 -20 11 -13 0 6 -10 5 -10 -7 -2 -18 14 -49 14 -49 0 0 -6 -5 -4 -10 4 -6
10 -10 11 -10 3z"/>
</g>
</svg>
